<svg width="64" height="64" viewBox="0 0 64 64" fill="none" xmlns="http://www.w3.org/2000/svg">
  <defs>
    <linearGradient id="logoGradient" x1="0%" y1="0%" x2="100%" y2="100%">
      <stop offset="0%" style="stop-color:#8B5CF6;stop-opacity:1" />
      <stop offset="100%" style="stop-color:#06B6D4;stop-opacity:1" />
    </linearGradient>
  </defs>
  
  <!-- Background circle with gradient -->
  <circle cx="32" cy="32" r="28" fill="url(#logoGradient)" />
  
  <!-- K letter - modern geometric design -->
  <g fill="white">
    <!-- Left vertical bar of K -->
    <rect x="20" y="18" width="4" height="28" rx="2" />
    
    <!-- Upper diagonal of K -->
    <path d="M26 18 L38 18 C39.1 18 40 18.9 40 20 C40 20.6 39.7 21.1 39.3 21.4 L32.8 26.6 L39.3 31.8 C39.7 32.1 40 32.6 40 33.2 C40 34.3 39.1 35.2 38 35.2 L35.2 35.2 C34.6 35.2 34.1 34.9 33.8 34.5 L29 29.8 L26 32.2 L26 18 Z" />
    
    <!-- Lower part connecting to diagonal -->
    <path d="M26 31.8 L29 29.4 L33.8 34.1 C34.1 34.5 34.6 34.8 35.2 34.8 L38 34.8 L32.8 29.6 L26 34.8 L26 44 C26 45.1 25.1 46 24 46 C22.9 46 22 45.1 22 44 L22 20 C22 18.9 22.9 18 24 18 C25.1 18 26 18.9 26 20 L26 31.8 Z" />
  </g>
  
  <!-- Subtle highlight for depth -->
  <circle cx="32" cy="32" r="28" fill="none" stroke="rgba(255,255,255,0.2)" stroke-width="1" />
</svg>